<svg class="rich-terminal" viewBox="0 0 1482 928.4" xmlns="http://www.w3.org/2000/svg">
    <!-- Generated with Rich https://www.textualize.io -->
    <style>

    @font-face {
        font-family: "Fira Code";
        src: local("FiraCode-Regular"),
                url("https://cdnjs.cloudflare.com/ajax/libs/firacode/6.2.0/woff2/FiraCode-Regular.woff2") format("woff2"),
                url("https://cdnjs.cloudflare.com/ajax/libs/firacode/6.2.0/woff/FiraCode-Regular.woff") format("woff");
        font-style: normal;
        font-weight: 400;
    }
    @font-face {
        font-family: "Fira Code";
        src: local("FiraCode-Bold"),
                url("https://cdnjs.cloudflare.com/ajax/libs/firacode/6.2.0/woff2/FiraCode-Bold.woff2") format("woff2"),
                url("https://cdnjs.cloudflare.com/ajax/libs/firacode/6.2.0/woff/FiraCode-Bold.woff") format("woff");
        font-style: bold;
        font-weight: 700;
    }

    .terminal-matrix {
        font-family: Fira Code, monospace;
        font-size: 20px;
        line-height: 24.4px;
        font-variant-east-asian: full-width;
    }

    .terminal-title {
        font-size: 18px;
        font-weight: bold;
        font-family: arial;
    }

    .terminal-r1 { fill: #c5c8c6 }
.terminal-r2 { fill: #464646;font-weight: bold }
.terminal-r3 { fill: #b9b9b9 }
.terminal-r4 { fill: #464646 }
.terminal-r5 { fill: #646464 }
.terminal-r6 { fill: #d8d8d8 }
.terminal-r7 { fill: #838383;font-weight: bold }
.terminal-r8 { fill: #656565 }
.terminal-r9 { fill: #202020 }
.terminal-r10 { fill: #828282 }
.terminal-r11 { fill: #8d8d8d }
.terminal-r12 { fill: #efefef }
.terminal-r13 { fill: #212121 }
    </style>

    <defs>
    <clipPath id="terminal-clip-terminal">
      <rect x="0" y="0" width="1463.0" height="877.4" />
    </clipPath>
    <clipPath id="terminal-line-0">
    <rect x="0" y="1.5" width="1464" height="24.65"/>
            </clipPath>
<clipPath id="terminal-line-1">
    <rect x="0" y="25.9" width="1464" height="24.65"/>
            </clipPath>
<clipPath id="terminal-line-2">
    <rect x="0" y="50.3" width="1464" height="24.65"/>
            </clipPath>
<clipPath id="terminal-line-3">
    <rect x="0" y="74.7" width="1464" height="24.65"/>
            </clipPath>
<clipPath id="terminal-line-4">
    <rect x="0" y="99.1" width="1464" height="24.65"/>
            </clipPath>
<clipPath id="terminal-line-5">
    <rect x="0" y="123.5" width="1464" height="24.65"/>
            </clipPath>
<clipPath id="terminal-line-6">
    <rect x="0" y="147.9" width="1464" height="24.65"/>
            </clipPath>
<clipPath id="terminal-line-7">
    <rect x="0" y="172.3" width="1464" height="24.65"/>
            </clipPath>
<clipPath id="terminal-line-8">
    <rect x="0" y="196.7" width="1464" height="24.65"/>
            </clipPath>
<clipPath id="terminal-line-9">
    <rect x="0" y="221.1" width="1464" height="24.65"/>
            </clipPath>
<clipPath id="terminal-line-10">
    <rect x="0" y="245.5" width="1464" height="24.65"/>
            </clipPath>
<clipPath id="terminal-line-11">
    <rect x="0" y="269.9" width="1464" height="24.65"/>
            </clipPath>
<clipPath id="terminal-line-12">
    <rect x="0" y="294.3" width="1464" height="24.65"/>
            </clipPath>
<clipPath id="terminal-line-13">
    <rect x="0" y="318.7" width="1464" height="24.65"/>
            </clipPath>
<clipPath id="terminal-line-14">
    <rect x="0" y="343.1" width="1464" height="24.65"/>
            </clipPath>
<clipPath id="terminal-line-15">
    <rect x="0" y="367.5" width="1464" height="24.65"/>
            </clipPath>
<clipPath id="terminal-line-16">
    <rect x="0" y="391.9" width="1464" height="24.65"/>
            </clipPath>
<clipPath id="terminal-line-17">
    <rect x="0" y="416.3" width="1464" height="24.65"/>
            </clipPath>
<clipPath id="terminal-line-18">
    <rect x="0" y="440.7" width="1464" height="24.65"/>
            </clipPath>
<clipPath id="terminal-line-19">
    <rect x="0" y="465.1" width="1464" height="24.65"/>
            </clipPath>
<clipPath id="terminal-line-20">
    <rect x="0" y="489.5" width="1464" height="24.65"/>
            </clipPath>
<clipPath id="terminal-line-21">
    <rect x="0" y="513.9" width="1464" height="24.65"/>
            </clipPath>
<clipPath id="terminal-line-22">
    <rect x="0" y="538.3" width="1464" height="24.65"/>
            </clipPath>
<clipPath id="terminal-line-23">
    <rect x="0" y="562.7" width="1464" height="24.65"/>
            </clipPath>
<clipPath id="terminal-line-24">
    <rect x="0" y="587.1" width="1464" height="24.65"/>
            </clipPath>
<clipPath id="terminal-line-25">
    <rect x="0" y="611.5" width="1464" height="24.65"/>
            </clipPath>
<clipPath id="terminal-line-26">
    <rect x="0" y="635.9" width="1464" height="24.65"/>
            </clipPath>
<clipPath id="terminal-line-27">
    <rect x="0" y="660.3" width="1464" height="24.65"/>
            </clipPath>
<clipPath id="terminal-line-28">
    <rect x="0" y="684.7" width="1464" height="24.65"/>
            </clipPath>
<clipPath id="terminal-line-29">
    <rect x="0" y="709.1" width="1464" height="24.65"/>
            </clipPath>
<clipPath id="terminal-line-30">
    <rect x="0" y="733.5" width="1464" height="24.65"/>
            </clipPath>
<clipPath id="terminal-line-31">
    <rect x="0" y="757.9" width="1464" height="24.65"/>
            </clipPath>
<clipPath id="terminal-line-32">
    <rect x="0" y="782.3" width="1464" height="24.65"/>
            </clipPath>
<clipPath id="terminal-line-33">
    <rect x="0" y="806.7" width="1464" height="24.65"/>
            </clipPath>
<clipPath id="terminal-line-34">
    <rect x="0" y="831.1" width="1464" height="24.65"/>
            </clipPath>
    </defs>

    <rect fill="#292929" stroke="rgba(255,255,255,0.35)" stroke-width="1" x="1" y="1" width="1480" height="926.4" rx="8"/><text class="terminal-title" fill="#c5c8c6" text-anchor="middle" x="740" y="27">Lumen</text>
            <g transform="translate(26,22)">
            <circle cx="0" cy="0" r="7" fill="#ff5f57"/>
            <circle cx="22" cy="0" r="7" fill="#febc2e"/>
            <circle cx="44" cy="0" r="7" fill="#28c840"/>
            </g>
        
    <g transform="translate(9, 41)" clip-path="url(#terminal-clip-terminal)">
    <rect fill="#fbfbfb" x="0" y="1.5" width="24.4" height="24.65" shape-rendering="crispEdges"/><rect fill="#fbfbfb" x="24.4" y="1.5" width="927.2" height="24.65" shape-rendering="crispEdges"/><rect fill="#fbfbfb" x="951.6" y="1.5" width="512.4" height="24.65" shape-rendering="crispEdges"/><rect fill="#fbfbfb" x="0" y="25.9" width="1464" height="24.65" shape-rendering="crispEdges"/><rect fill="#f8f8f8" x="0" y="50.3" width="1464" height="24.65" shape-rendering="crispEdges"/><rect fill="#f8f8f8" x="0" y="74.7" width="1464" height="24.65" shape-rendering="crispEdges"/><rect fill="#f8f8f8" x="0" y="99.1" width="24.4" height="24.65" shape-rendering="crispEdges"/><rect fill="#fbfbfb" x="24.4" y="99.1" width="12.2" height="24.65" shape-rendering="crispEdges"/><rect fill="#fbfbfb" x="36.6" y="99.1" width="1329.8" height="24.65" shape-rendering="crispEdges"/><rect fill="#f8f8f8" x="1366.4" y="99.1" width="97.6" height="24.65" shape-rendering="crispEdges"/><rect fill="#f8f8f8" x="0" y="123.5" width="24.4" height="24.65" shape-rendering="crispEdges"/><rect fill="#fbfbfb" x="24.4" y="123.5" width="12.2" height="24.65" shape-rendering="crispEdges"/><rect fill="#fbfbfb" x="36.6" y="123.5" width="24.4" height="24.65" shape-rendering="crispEdges"/><rect fill="#fbfbfb" x="61" y="123.5" width="268.4" height="24.65" shape-rendering="crispEdges"/><rect fill="#fbfbfb" x="329.4" y="123.5" width="1037" height="24.65" shape-rendering="crispEdges"/><rect fill="#f8f8f8" x="1366.4" y="123.5" width="97.6" height="24.65" shape-rendering="crispEdges"/><rect fill="#f8f8f8" x="0" y="147.9" width="24.4" height="24.65" shape-rendering="crispEdges"/><rect fill="#fbfbfb" x="24.4" y="147.9" width="12.2" height="24.65" shape-rendering="crispEdges"/><rect fill="#fbfbfb" x="36.6" y="147.9" width="24.4" height="24.65" shape-rendering="crispEdges"/><rect fill="#fbfbfb" x="61" y="147.9" width="183" height="24.65" shape-rendering="crispEdges"/><rect fill="#fbfbfb" x="244" y="147.9" width="1122.4" height="24.65" shape-rendering="crispEdges"/><rect fill="#f8f8f8" x="1366.4" y="147.9" width="97.6" height="24.65" shape-rendering="crispEdges"/><rect fill="#f8f8f8" x="0" y="172.3" width="24.4" height="24.65" shape-rendering="crispEdges"/><rect fill="#fbfbfb" x="24.4" y="172.3" width="12.2" height="24.65" shape-rendering="crispEdges"/><rect fill="#fbfbfb" x="36.6" y="172.3" width="24.4" height="24.65" shape-rendering="crispEdges"/><rect fill="#fbfbfb" x="61" y="172.3" width="0" height="24.65" shape-rendering="crispEdges"/><rect fill="#fbfbfb" x="61" y="172.3" width="1305.4" height="24.65" shape-rendering="crispEdges"/><rect fill="#f8f8f8" x="1366.4" y="172.3" width="97.6" height="24.65" shape-rendering="crispEdges"/><rect fill="#f8f8f8" x="0" y="196.7" width="24.4" height="24.65" shape-rendering="crispEdges"/><rect fill="#fbfbfb" x="24.4" y="196.7" width="12.2" height="24.65" shape-rendering="crispEdges"/><rect fill="#fbfbfb" x="36.6" y="196.7" width="24.4" height="24.65" shape-rendering="crispEdges"/><rect fill="#fbfbfb" x="61" y="196.7" width="183" height="24.65" shape-rendering="crispEdges"/><rect fill="#fbfbfb" x="244" y="196.7" width="1122.4" height="24.65" shape-rendering="crispEdges"/><rect fill="#f8f8f8" x="1366.4" y="196.7" width="97.6" height="24.65" shape-rendering="crispEdges"/><rect fill="#f8f8f8" x="0" y="221.1" width="24.4" height="24.65" shape-rendering="crispEdges"/><rect fill="#fbfbfb" x="24.4" y="221.1" width="12.2" height="24.65" shape-rendering="crispEdges"/><rect fill="#fbfbfb" x="36.6" y="221.1" width="24.4" height="24.65" shape-rendering="crispEdges"/><rect fill="#fbfbfb" x="61" y="221.1" width="475.8" height="24.65" shape-rendering="crispEdges"/><rect fill="#fbfbfb" x="536.8" y="221.1" width="829.6" height="24.65" shape-rendering="crispEdges"/><rect fill="#f8f8f8" x="1366.4" y="221.1" width="97.6" height="24.65" shape-rendering="crispEdges"/><rect fill="#f8f8f8" x="0" y="245.5" width="24.4" height="24.65" shape-rendering="crispEdges"/><rect fill="#fbfbfb" x="24.4" y="245.5" width="12.2" height="24.65" shape-rendering="crispEdges"/><rect fill="#fbfbfb" x="36.6" y="245.5" width="24.4" height="24.65" shape-rendering="crispEdges"/><rect fill="#fbfbfb" x="61" y="245.5" width="231.8" height="24.65" shape-rendering="crispEdges"/><rect fill="#fbfbfb" x="292.8" y="245.5" width="1073.6" height="24.65" shape-rendering="crispEdges"/><rect fill="#f8f8f8" x="1366.4" y="245.5" width="97.6" height="24.65" shape-rendering="crispEdges"/><rect fill="#f8f8f8" x="0" y="269.9" width="24.4" height="24.65" shape-rendering="crispEdges"/><rect fill="#fbfbfb" x="24.4" y="269.9" width="12.2" height="24.65" shape-rendering="crispEdges"/><rect fill="#fbfbfb" x="36.6" y="269.9" width="24.4" height="24.65" shape-rendering="crispEdges"/><rect fill="#fbfbfb" x="61" y="269.9" width="329.4" height="24.65" shape-rendering="crispEdges"/><rect fill="#fbfbfb" x="390.4" y="269.9" width="976" height="24.65" shape-rendering="crispEdges"/><rect fill="#f8f8f8" x="1366.4" y="269.9" width="97.6" height="24.65" shape-rendering="crispEdges"/><rect fill="#f8f8f8" x="0" y="294.3" width="24.4" height="24.65" shape-rendering="crispEdges"/><rect fill="#fbfbfb" x="24.4" y="294.3" width="12.2" height="24.65" shape-rendering="crispEdges"/><rect fill="#fbfbfb" x="36.6" y="294.3" width="24.4" height="24.65" shape-rendering="crispEdges"/><rect fill="#fbfbfb" x="61" y="294.3" width="634.4" height="24.65" shape-rendering="crispEdges"/><rect fill="#fbfbfb" x="695.4" y="294.3" width="671" height="24.65" shape-rendering="crispEdges"/><rect fill="#f8f8f8" x="1366.4" y="294.3" width="97.6" height="24.65" shape-rendering="crispEdges"/><rect fill="#f8f8f8" x="0" y="318.7" width="24.4" height="24.65" shape-rendering="crispEdges"/><rect fill="#fbfbfb" x="24.4" y="318.7" width="12.2" height="24.65" shape-rendering="crispEdges"/><rect fill="#fbfbfb" x="36.6" y="318.7" width="24.4" height="24.65" shape-rendering="crispEdges"/><rect fill="#fbfbfb" x="61" y="318.7" width="561.2" height="24.65" shape-rendering="crispEdges"/><rect fill="#fbfbfb" x="622.2" y="318.7" width="744.2" height="24.65" shape-rendering="crispEdges"/><rect fill="#f8f8f8" x="1366.4" y="318.7" width="97.6" height="24.65" shape-rendering="crispEdges"/><rect fill="#f8f8f8" x="0" y="343.1" width="24.4" height="24.65" shape-rendering="crispEdges"/><rect fill="#fbfbfb" x="24.4" y="343.1" width="12.2" height="24.65" shape-rendering="crispEdges"/><rect fill="#fbfbfb" x="36.6" y="343.1" width="24.4" height="24.65" shape-rendering="crispEdges"/><rect fill="#fbfbfb" x="61" y="343.1" width="0" height="24.65" shape-rendering="crispEdges"/><rect fill="#fbfbfb" x="61" y="343.1" width="1305.4" height="24.65" shape-rendering="crispEdges"/><rect fill="#f8f8f8" x="1366.4" y="343.1" width="97.6" height="24.65" shape-rendering="crispEdges"/><rect fill="#f8f8f8" x="0" y="367.5" width="24.4" height="24.65" shape-rendering="crispEdges"/><rect fill="#fbfbfb" x="24.4" y="367.5" width="12.2" height="24.65" shape-rendering="crispEdges"/><rect fill="#fbfbfb" x="36.6" y="367.5" width="24.4" height="24.65" shape-rendering="crispEdges"/><rect fill="#fbfbfb" x="61" y="367.5" width="866.2" height="24.65" shape-rendering="crispEdges"/><rect fill="#fbfbfb" x="927.2" y="367.5" width="439.2" height="24.65" shape-rendering="crispEdges"/><rect fill="#f8f8f8" x="1366.4" y="367.5" width="97.6" height="24.65" shape-rendering="crispEdges"/><rect fill="#f8f8f8" x="0" y="391.9" width="24.4" height="24.65" shape-rendering="crispEdges"/><rect fill="#fbfbfb" x="24.4" y="391.9" width="12.2" height="24.65" shape-rendering="crispEdges"/><rect fill="#fbfbfb" x="36.6" y="391.9" width="1329.8" height="24.65" shape-rendering="crispEdges"/><rect fill="#f8f8f8" x="1366.4" y="391.9" width="97.6" height="24.65" shape-rendering="crispEdges"/><rect fill="#f8f8f8" x="0" y="416.3" width="1464" height="24.65" shape-rendering="crispEdges"/><rect fill="#f8f8f8" x="0" y="440.7" width="1464" height="24.65" shape-rendering="crispEdges"/><rect fill="#f8f8f8" x="0" y="465.1" width="48.8" height="24.65" shape-rendering="crispEdges"/><rect fill="#fafafa" x="48.8" y="465.1" width="1293.2" height="24.65" shape-rendering="crispEdges"/><rect fill="#f8f8f8" x="1342" y="465.1" width="122" height="24.65" shape-rendering="crispEdges"/><rect fill="#f8f8f8" x="0" y="489.5" width="48.8" height="24.65" shape-rendering="crispEdges"/><rect fill="#fafafa" x="48.8" y="489.5" width="12.2" height="24.65" shape-rendering="crispEdges"/><rect fill="#fafafa" x="61" y="489.5" width="12.2" height="24.65" shape-rendering="crispEdges"/><rect fill="#fafafa" x="73.2" y="489.5" width="24.4" height="24.65" shape-rendering="crispEdges"/><rect fill="#fafafa" x="97.6" y="489.5" width="109.8" height="24.65" shape-rendering="crispEdges"/><rect fill="#fafafa" x="207.4" y="489.5" width="317.2" height="24.65" shape-rendering="crispEdges"/><rect fill="#fafafa" x="524.6" y="489.5" width="805.2" height="24.65" shape-rendering="crispEdges"/><rect fill="#fafafa" x="1329.8" y="489.5" width="12.2" height="24.65" shape-rendering="crispEdges"/><rect fill="#f8f8f8" x="1342" y="489.5" width="122" height="24.65" shape-rendering="crispEdges"/><rect fill="#f8f8f8" x="0" y="513.9" width="48.8" height="24.65" shape-rendering="crispEdges"/><rect fill="#fafafa" x="48.8" y="513.9" width="12.2" height="24.65" shape-rendering="crispEdges"/><rect fill="#fafafa" x="61" y="513.9" width="12.2" height="24.65" shape-rendering="crispEdges"/><rect fill="#fefefe" x="73.2" y="513.9" width="12.2" height="24.65" shape-rendering="crispEdges"/><rect fill="#fefefe" x="85.4" y="513.9" width="12.2" height="24.65" shape-rendering="crispEdges"/><rect fill="#fefefe" x="97.6" y="513.9" width="1220" height="24.65" shape-rendering="crispEdges"/><rect fill="#fafafa" x="1317.6" y="513.9" width="12.2" height="24.65" shape-rendering="crispEdges"/><rect fill="#fafafa" x="1329.8" y="513.9" width="12.2" height="24.65" shape-rendering="crispEdges"/><rect fill="#f8f8f8" x="1342" y="513.9" width="122" height="24.65" shape-rendering="crispEdges"/><rect fill="#f8f8f8" x="0" y="538.3" width="48.8" height="24.65" shape-rendering="crispEdges"/><rect fill="#fafafa" x="48.8" y="538.3" width="12.2" height="24.65" shape-rendering="crispEdges"/><rect fill="#fafafa" x="61" y="538.3" width="12.2" height="24.65" shape-rendering="crispEdges"/><rect fill="#fefefe" x="73.2" y="538.3" width="12.2" height="24.65" shape-rendering="crispEdges"/><rect fill="#fefefe" x="85.4" y="538.3" width="268.4" height="24.65" shape-rendering="crispEdges"/><rect fill="#fefefe" x="353.8" y="538.3" width="963.8" height="24.65" shape-rendering="crispEdges"/><rect fill="#fafafa" x="1317.6" y="538.3" width="12.2" height="24.65" shape-rendering="crispEdges"/><rect fill="#fafafa" x="1329.8" y="538.3" width="12.2" height="24.65" shape-rendering="crispEdges"/><rect fill="#f8f8f8" x="1342" y="538.3" width="122" height="24.65" shape-rendering="crispEdges"/><rect fill="#f8f8f8" x="0" y="562.7" width="48.8" height="24.65" shape-rendering="crispEdges"/><rect fill="#fafafa" x="48.8" y="562.7" width="12.2" height="24.65" shape-rendering="crispEdges"/><rect fill="#fafafa" x="61" y="562.7" width="12.2" height="24.65" shape-rendering="crispEdges"/><rect fill="#fefefe" x="73.2" y="562.7" width="12.2" height="24.65" shape-rendering="crispEdges"/><rect fill="#fefefe" x="85.4" y="562.7" width="256.2" height="24.65" shape-rendering="crispEdges"/><rect fill="#fefefe" x="341.6" y="562.7" width="976" height="24.65" shape-rendering="crispEdges"/><rect fill="#fafafa" x="1317.6" y="562.7" width="12.2" height="24.65" shape-rendering="crispEdges"/><rect fill="#fafafa" x="1329.8" y="562.7" width="12.2" height="24.65" shape-rendering="crispEdges"/><rect fill="#f8f8f8" x="1342" y="562.7" width="122" height="24.65" shape-rendering="crispEdges"/><rect fill="#f8f8f8" x="0" y="587.1" width="48.8" height="24.65" shape-rendering="crispEdges"/><rect fill="#fafafa" x="48.8" y="587.1" width="12.2" height="24.65" shape-rendering="crispEdges"/><rect fill="#fafafa" x="61" y="587.1" width="12.2" height="24.65" shape-rendering="crispEdges"/><rect fill="#fefefe" x="73.2" y="587.1" width="12.2" height="24.65" shape-rendering="crispEdges"/><rect fill="#fefefe" x="85.4" y="587.1" width="12.2" height="24.65" shape-rendering="crispEdges"/><rect fill="#fefefe" x="97.6" y="587.1" width="1220" height="24.65" shape-rendering="crispEdges"/><rect fill="#fafafa" x="1317.6" y="587.1" width="12.2" height="24.65" shape-rendering="crispEdges"/><rect fill="#fafafa" x="1329.8" y="587.1" width="12.2" height="24.65" shape-rendering="crispEdges"/><rect fill="#f8f8f8" x="1342" y="587.1" width="122" height="24.65" shape-rendering="crispEdges"/><rect fill="#f8f8f8" x="0" y="611.5" width="48.8" height="24.65" shape-rendering="crispEdges"/><rect fill="#fafafa" x="48.8" y="611.5" width="12.2" height="24.65" shape-rendering="crispEdges"/><rect fill="#fafafa" x="61" y="611.5" width="24.4" height="24.65" shape-rendering="crispEdges"/><rect fill="#fafafa" x="85.4" y="611.5" width="183" height="24.65" shape-rendering="crispEdges"/><rect fill="#fafafa" x="268.4" y="611.5" width="1061.4" height="24.65" shape-rendering="crispEdges"/><rect fill="#fafafa" x="1329.8" y="611.5" width="12.2" height="24.65" shape-rendering="crispEdges"/><rect fill="#f8f8f8" x="1342" y="611.5" width="122" height="24.65" shape-rendering="crispEdges"/><rect fill="#f8f8f8" x="0" y="635.9" width="48.8" height="24.65" shape-rendering="crispEdges"/><rect fill="#fafafa" x="48.8" y="635.9" width="1293.2" height="24.65" shape-rendering="crispEdges"/><rect fill="#f8f8f8" x="1342" y="635.9" width="122" height="24.65" shape-rendering="crispEdges"/><rect fill="#f8f8f8" x="0" y="660.3" width="1464" height="24.65" shape-rendering="crispEdges"/><rect fill="#f8f8f8" x="0" y="684.7" width="1464" height="24.65" shape-rendering="crispEdges"/><rect fill="#f8f8f8" x="0" y="709.1" width="36.6" height="24.65" shape-rendering="crispEdges"/><rect fill="#f8f8f8" x="36.6" y="709.1" width="24.4" height="24.65" shape-rendering="crispEdges"/><rect fill="#f8f8f8" x="61" y="709.1" width="195.2" height="24.65" shape-rendering="crispEdges"/><rect fill="#f8f8f8" x="256.2" y="709.1" width="134.2" height="24.65" shape-rendering="crispEdges"/><rect fill="#f8f8f8" x="390.4" y="709.1" width="183" height="24.65" shape-rendering="crispEdges"/><rect fill="#f8f8f8" x="573.4" y="709.1" width="890.6" height="24.65" shape-rendering="crispEdges"/><rect fill="#f8f8f8" x="0" y="733.5" width="24.4" height="24.65" shape-rendering="crispEdges"/><rect fill="#ffffff" x="24.4" y="733.5" width="1415.2" height="24.65" shape-rendering="crispEdges"/><rect fill="#f8f8f8" x="1439.6" y="733.5" width="24.4" height="24.65" shape-rendering="crispEdges"/><rect fill="#f8f8f8" x="0" y="757.9" width="24.4" height="24.65" shape-rendering="crispEdges"/><rect fill="#ffffff" x="24.4" y="757.9" width="12.2" height="24.65" shape-rendering="crispEdges"/><rect fill="#ffffff" x="36.6" y="757.9" width="12.2" height="24.65" shape-rendering="crispEdges"/><rect fill="#656565" x="48.8" y="757.9" width="12.2" height="24.65" shape-rendering="crispEdges"/><rect fill="#ffffff" x="61" y="757.9" width="1354.2" height="24.65" shape-rendering="crispEdges"/><rect fill="#ffffff" x="1415.2" y="757.9" width="12.2" height="24.65" shape-rendering="crispEdges"/><rect fill="#ffffff" x="1427.4" y="757.9" width="12.2" height="24.65" shape-rendering="crispEdges"/><rect fill="#f8f8f8" x="1439.6" y="757.9" width="24.4" height="24.65" shape-rendering="crispEdges"/><rect fill="#f8f8f8" x="0" y="782.3" width="24.4" height="24.65" shape-rendering="crispEdges"/><rect fill="#ffffff" x="24.4" y="782.3" width="1415.2" height="24.65" shape-rendering="crispEdges"/><rect fill="#f8f8f8" x="1439.6" y="782.3" width="24.4" height="24.65" shape-rendering="crispEdges"/><rect fill="#f8f8f8" x="0" y="806.7" width="1464" height="24.65" shape-rendering="crispEdges"/><rect fill="#fdfdfd" x="0" y="831.1" width="1464" height="24.65" shape-rendering="crispEdges"/><rect fill="#fdfdfd" x="0" y="855.5" width="24.4" height="24.65" shape-rendering="crispEdges"/><rect fill="#fdfdfd" x="24.4" y="855.5" width="585.6" height="24.65" shape-rendering="crispEdges"/><rect fill="#fdfdfd" x="610" y="855.5" width="854" height="24.65" shape-rendering="crispEdges"/>
    <g class="terminal-matrix">
    <text class="terminal-r2" x="24.4" y="20" textLength="927.2" clip-path="url(#terminal-line-0)">◆&#160;Lumen&#160;/&#160;snapshot-agent&#160;&#160;·&#160;&#160;model&#160;test&#160;&#160;·&#160;&#160;manual&#160;mode&#160;&#160;·&#160;&#160;session&#160;a1b2c3d4</text><text class="terminal-r1" x="1464" y="20" textLength="12.2" clip-path="url(#terminal-line-0)">
</text><text class="terminal-r3" x="0" y="44.4" textLength="1464" clip-path="url(#terminal-line-1)">────────────────────────────────────────────────────────────────────────────────────────────────────────────────────────</text><text class="terminal-r1" x="1464" y="44.4" textLength="12.2" clip-path="url(#terminal-line-1)">
</text><text class="terminal-r1" x="1464" y="68.8" textLength="12.2" clip-path="url(#terminal-line-2)">
</text><text class="terminal-r1" x="1464" y="93.2" textLength="12.2" clip-path="url(#terminal-line-3)">
</text><text class="terminal-r4" x="24.4" y="117.6" textLength="12.2" clip-path="url(#terminal-line-4)">▌</text><text class="terminal-r1" x="1464" y="117.6" textLength="12.2" clip-path="url(#terminal-line-4)">
</text><text class="terminal-r4" x="24.4" y="142" textLength="12.2" clip-path="url(#terminal-line-5)">▌</text><text class="terminal-r5" x="61" y="142" textLength="268.4" clip-path="url(#terminal-line-5)">Lumen&#160;/&#160;snapshot-agent</text><text class="terminal-r1" x="1464" y="142" textLength="12.2" clip-path="url(#terminal-line-5)">
</text><text class="terminal-r4" x="24.4" y="166.4" textLength="12.2" clip-path="url(#terminal-line-6)">▌</text><text class="terminal-r5" x="61" y="166.4" textLength="183" clip-path="url(#terminal-line-6)">Workspace&#160;ready</text><text class="terminal-r1" x="1464" y="166.4" textLength="12.2" clip-path="url(#terminal-line-6)">
</text><text class="terminal-r4" x="24.4" y="190.8" textLength="12.2" clip-path="url(#terminal-line-7)">▌</text><text class="terminal-r1" x="1464" y="190.8" textLength="12.2" clip-path="url(#terminal-line-7)">
</text><text class="terminal-r4" x="24.4" y="215.2" textLength="12.2" clip-path="url(#terminal-line-8)">▌</text><text class="terminal-r5" x="61" y="215.2" textLength="183" clip-path="url(#terminal-line-8)">Model&#160;&#160;&#160;&#160;&#160;&#160;test</text><text class="terminal-r1" x="1464" y="215.2" textLength="12.2" clip-path="url(#terminal-line-8)">
</text><text class="terminal-r4" x="24.4" y="239.6" textLength="12.2" clip-path="url(#terminal-line-9)">▌</text><text class="terminal-r5" x="61" y="239.6" textLength="475.8" clip-path="url(#terminal-line-9)">Mode&#160;&#160;&#160;&#160;&#160;&#160;&#160;manual&#160;·&#160;confirm&#160;risky&#160;tools</text><text class="terminal-r1" x="1464" y="239.6" textLength="12.2" clip-path="url(#terminal-line-9)">
</text><text class="terminal-r4" x="24.4" y="264" textLength="12.2" clip-path="url(#terminal-line-10)">▌</text><text class="terminal-r5" x="61" y="264" textLength="231.8" clip-path="url(#terminal-line-10)">Session&#160;&#160;&#160;&#160;a1b2c3d4</text><text class="terminal-r1" x="1464" y="264" textLength="12.2" clip-path="url(#terminal-line-10)">
</text><text class="terminal-r4" x="24.4" y="288.4" textLength="12.2" clip-path="url(#terminal-line-11)">▌</text><text class="terminal-r5" x="61" y="288.4" textLength="329.4" clip-path="url(#terminal-line-11)">Project&#160;&#160;&#160;&#160;~/projects/lumen</text><text class="terminal-r1" x="1464" y="288.4" textLength="12.2" clip-path="url(#terminal-line-11)">
</text><text class="terminal-r4" x="24.4" y="312.8" textLength="12.2" clip-path="url(#terminal-line-12)">▌</text><text class="terminal-r5" x="61" y="312.8" textLength="634.4" clip-path="url(#terminal-line-12)">Outputs&#160;&#160;&#160;&#160;outputs/&#160;·&#160;default&#160;generated&#160;deliverables</text><text class="terminal-r1" x="1464" y="312.8" textLength="12.2" clip-path="url(#terminal-line-12)">
</text><text class="terminal-r4" x="24.4" y="337.2" textLength="12.2" clip-path="url(#terminal-line-13)">▌</text><text class="terminal-r5" x="61" y="337.2" textLength="561.2" clip-path="url(#terminal-line-13)">Resources&#160;&#160;4&#160;tools&#160;·&#160;2&#160;skills&#160;·&#160;no&#160;MCP&#160;servers</text><text class="terminal-r1" x="1464" y="337.2" textLength="12.2" clip-path="url(#terminal-line-13)">
</text><text class="terminal-r4" x="24.4" y="361.6" textLength="12.2" clip-path="url(#terminal-line-14)">▌</text><text class="terminal-r1" x="1464" y="361.6" textLength="12.2" clip-path="url(#terminal-line-14)">
</text><text class="terminal-r4" x="24.4" y="386" textLength="12.2" clip-path="url(#terminal-line-15)">▌</text><text class="terminal-r5" x="61" y="386" textLength="866.2" clip-path="url(#terminal-line-15)">Type&#160;a&#160;request&#160;·&#160;/&#160;commands&#160;·&#160;@&#160;files&#160;·&#160;Shift+Tab&#160;mode&#160;·&#160;Ctrl+P&#160;palette</text><text class="terminal-r1" x="1464" y="386" textLength="12.2" clip-path="url(#terminal-line-15)">
</text><text class="terminal-r4" x="24.4" y="410.4" textLength="12.2" clip-path="url(#terminal-line-16)">▌</text><text class="terminal-r1" x="1464" y="410.4" textLength="12.2" clip-path="url(#terminal-line-16)">
</text><text class="terminal-r1" x="1464" y="434.8" textLength="12.2" clip-path="url(#terminal-line-17)">
</text><text class="terminal-r1" x="1464" y="459.2" textLength="12.2" clip-path="url(#terminal-line-18)">
</text><text class="terminal-r6" x="48.8" y="483.6" textLength="1293.2" clip-path="url(#terminal-line-19)">╭────────────────────────────────────────────────────────────────────────────────────────────────────────╮</text><text class="terminal-r1" x="1464" y="483.6" textLength="12.2" clip-path="url(#terminal-line-19)">
</text><text class="terminal-r6" x="48.8" y="508" textLength="12.2" clip-path="url(#terminal-line-20)">│</text><text class="terminal-r2" x="73.2" y="508" textLength="24.4" clip-path="url(#terminal-line-20)">✓&#160;</text><text class="terminal-r2" x="97.6" y="508" textLength="109.8" clip-path="url(#terminal-line-20)">read_file</text><text class="terminal-r7" x="207.4" y="508" textLength="317.2" clip-path="url(#terminal-line-20)">&#160;&#160;(read&#160;·&#160;builtin&#160;·&#160;0.12s)</text><text class="terminal-r6" x="1329.8" y="508" textLength="12.2" clip-path="url(#terminal-line-20)">│</text><text class="terminal-r1" x="1464" y="508" textLength="12.2" clip-path="url(#terminal-line-20)">
</text><text class="terminal-r6" x="48.8" y="532.4" textLength="12.2" clip-path="url(#terminal-line-21)">│</text><text class="terminal-r8" x="85.4" y="532.4" textLength="12.2" clip-path="url(#terminal-line-21)">{</text><text class="terminal-r6" x="1329.8" y="532.4" textLength="12.2" clip-path="url(#terminal-line-21)">│</text><text class="terminal-r1" x="1464" y="532.4" textLength="12.2" clip-path="url(#terminal-line-21)">
</text><text class="terminal-r6" x="48.8" y="556.8" textLength="12.2" clip-path="url(#terminal-line-22)">│</text><text class="terminal-r8" x="85.4" y="556.8" textLength="268.4" clip-path="url(#terminal-line-22)">&#160;&#160;&quot;path&quot;:&#160;&quot;README.md&quot;,</text><text class="terminal-r6" x="1329.8" y="556.8" textLength="12.2" clip-path="url(#terminal-line-22)">│</text><text class="terminal-r1" x="1464" y="556.8" textLength="12.2" clip-path="url(#terminal-line-22)">
</text><text class="terminal-r6" x="48.8" y="581.2" textLength="12.2" clip-path="url(#terminal-line-23)">│</text><text class="terminal-r8" x="85.4" y="581.2" textLength="256.2" clip-path="url(#terminal-line-23)">&#160;&#160;&quot;encoding&quot;:&#160;&quot;utf-8&quot;</text><text class="terminal-r6" x="1329.8" y="581.2" textLength="12.2" clip-path="url(#terminal-line-23)">│</text><text class="terminal-r1" x="1464" y="581.2" textLength="12.2" clip-path="url(#terminal-line-23)">
</text><text class="terminal-r6" x="48.8" y="605.6" textLength="12.2" clip-path="url(#terminal-line-24)">│</text><text class="terminal-r8" x="85.4" y="605.6" textLength="12.2" clip-path="url(#terminal-line-24)">}</text><text class="terminal-r6" x="1329.8" y="605.6" textLength="12.2" clip-path="url(#terminal-line-24)">│</text><text class="terminal-r1" x="1464" y="605.6" textLength="12.2" clip-path="url(#terminal-line-24)">
</text><text class="terminal-r6" x="48.8" y="630" textLength="12.2" clip-path="url(#terminal-line-25)">│</text><text class="terminal-r9" x="85.4" y="630" textLength="183" clip-path="url(#terminal-line-25)">README&#160;preview…</text><text class="terminal-r6" x="1329.8" y="630" textLength="12.2" clip-path="url(#terminal-line-25)">│</text><text class="terminal-r1" x="1464" y="630" textLength="12.2" clip-path="url(#terminal-line-25)">
</text><text class="terminal-r6" x="48.8" y="654.4" textLength="1293.2" clip-path="url(#terminal-line-26)">╰────────────────────────────────────────────────────────────────────────────────────────────────────────╯</text><text class="terminal-r1" x="1464" y="654.4" textLength="12.2" clip-path="url(#terminal-line-26)">
</text><text class="terminal-r1" x="1464" y="678.8" textLength="12.2" clip-path="url(#terminal-line-27)">
</text><text class="terminal-r1" x="1464" y="703.2" textLength="12.2" clip-path="url(#terminal-line-28)">
</text><text class="terminal-r4" x="36.6" y="727.6" textLength="24.4" clip-path="url(#terminal-line-29)">✦&#160;</text><text class="terminal-r2" x="61" y="727.6" textLength="195.2" clip-path="url(#terminal-line-29)">Reviewing&#160;result</text><text class="terminal-r10" x="256.2" y="727.6" textLength="134.2" clip-path="url(#terminal-line-29)">&#160;&#160;read&#160;file</text><text class="terminal-r10" x="390.4" y="727.6" textLength="183" clip-path="url(#terminal-line-29)">&#160;&#160;(0s&#160;·&#160;1&#160;tool)</text><text class="terminal-r1" x="1464" y="727.6" textLength="12.2" clip-path="url(#terminal-line-29)">
</text><text class="terminal-r11" x="24.4" y="752" textLength="1415.2" clip-path="url(#terminal-line-30)">╭──────────────────────────────────────────────────────────────────────────────────────────────────────────────────╮</text><text class="terminal-r1" x="1464" y="752" textLength="12.2" clip-path="url(#terminal-line-30)">
</text><text class="terminal-r11" x="24.4" y="776.4" textLength="12.2" clip-path="url(#terminal-line-31)">│</text><text class="terminal-r11" x="1427.4" y="776.4" textLength="12.2" clip-path="url(#terminal-line-31)">│</text><text class="terminal-r1" x="1464" y="776.4" textLength="12.2" clip-path="url(#terminal-line-31)">
</text><text class="terminal-r11" x="24.4" y="800.8" textLength="1415.2" clip-path="url(#terminal-line-32)">╰──────────────────────────────────────────────────────────────────────────────────────────────────────────────────╯</text><text class="terminal-r1" x="1464" y="800.8" textLength="12.2" clip-path="url(#terminal-line-32)">
</text><text class="terminal-r1" x="1464" y="825.2" textLength="12.2" clip-path="url(#terminal-line-33)">
</text><text class="terminal-r3" x="0" y="849.6" textLength="1464" clip-path="url(#terminal-line-34)">────────────────────────────────────────────────────────────────────────────────────────────────────────────────────────</text><text class="terminal-r1" x="1464" y="849.6" textLength="12.2" clip-path="url(#terminal-line-34)">
</text><text class="terminal-r8" x="24.4" y="874" textLength="585.6" clip-path="url(#terminal-line-35)">◆&#160;manual&#160;mode&#160;&#160;·&#160;&#160;Running&#160;read_file…&#160;&#160;│&#160;&#160;test&#160;&#160;│</text>
    </g>
    </g>
</svg>
